<svg xmlns="http://www.w3.org/2000/svg" viewBox="0 0 132 132" width="132" height="132">
  <rect width="132" height="132" rx="26" fill="#0E2E47"/>
  <g transform="translate(0, 9)" fill="#FFFFFF">
    <path d="M116.42,79.02c-5.6,1.8-8.73,4.31-10.48,6.69c-2.03,2.77-2.29,6.46-0.87,9.58l4.21,9.27 c0.97,1.94,1.94,2.76,4.01,2.76h12.03c2.07,0,3.18-1.8,2.35-3.59L116.42,79.02z"/>
    <path d="M85.09,10.71c-0.41-0.83-0.97-1.52-2.35-1.52h-1.38c-1.24,0-1.93,0.69-2.35,1.52L55.58,61.4 c-0.55-0.23-0.87-0.37-0.87-0.37s-11.41-4.79-21.63-6.38C15.64,51.93,2.23,63,2.23,63c-0.4,0.34-0.75,0.85-0.78,1.25 c-0.04,0.64,0.45,1.19,1.08,1.26c0.39,0.04,0.7,0.02,1.13-0.05c0,0,13.68-3.22,30.85,3.22S54,77.59,62.3,80.01 c9.7,2.64,19.69,3.62,29.63,2.1c2.54-0.39,5.71-1.34,8.15-2.03c0,0,8.85-2.59,13.79-6.59L85.09,10.71z M81.5,43.88h0.41l10.72,23.58 c-0.1,0.03-0.16,0.05-0.16,0.05c-0.5,0.08-1,0.17-1.51,0.24c-6.13,0.86-13.18,0.74-19.87-0.5L81.5,43.88z"/>
  </g>
</svg>
