<?xml version="1.0" encoding="utf-8"?>
<!-- Generator: Adobe Illustrator 26.0.2, SVG Export Plug-In . SVG Version: 6.00 Build 0)  -->
<svg version="1.1" id="Layer_1" xmlns="http://www.w3.org/2000/svg" xmlns:xlink="http://www.w3.org/1999/xlink" x="0px" y="0px"
	 viewBox="0 0 305.51 137.22" style="enable-background:new 0 0 305.51 137.22;" xml:space="preserve">
<style type="text/css">
	.st0{fill:#292F6D;}
</style>
<g>
	<g>
		<path class="st0" d="M206.96,124.84c-1.04,2.12-2.69,3.83-4.35,4.77c-2.03,1.13-4.3,1.37-6.14,1.37c-2.74,0-5.43-0.52-7.61-2.83
			c-1.13-1.18-2.46-3.26-2.46-6.61c0-3.54,1.28-7.09,3.54-9.31c2.6-2.6,5.67-3.02,8.17-3.02c2.46,0,5.01,0.47,6.99,2.36
			c2.22,2.13,2.65,4.91,2.65,7.42c0,0.85,0,1.46-0.1,2.08h-15.3c-0.24,1.89,0.33,3.26,1.18,4.11c1.04,1.09,2.32,1.28,3.36,1.28
			c0.71,0,2.03-0.05,3.12-0.66c0.85-0.52,1.56-1.37,1.98-2.13L206.96,124.84z M202.71,117.37c-0.05-1.18-0.57-2.31-1.28-2.98
			c-0.8-0.76-2.03-1.13-3.21-1.13c-1.56,0-2.69,0.61-3.5,1.32c-0.71,0.66-1.37,1.65-1.7,2.79H202.71z"/>
		<path class="st0" d="M230.74,129.36c-1.07,0.56-3.18,1.55-6.55,1.55c-4.8,0-7.62-1.91-9.01-3.25c-2.62-2.5-3.53-5.71-3.53-8.89
			c0-5,1.83-9.01,4.25-11.47c3.45-3.45,7.74-4.05,10.88-4.05c1.71,0,4.13,0.16,6.98,1.63l-0.71,5.95c-2.22-2.58-5.08-2.9-6.75-2.9
			c-3.33,0-5.36,1.39-6.63,2.74c-1.75,1.87-2.66,4.68-2.66,7.34c0,2.9,1.11,4.76,2.22,5.95c1.51,1.59,3.45,2.3,5.71,2.3
			c4.01,0,5.88-2.02,6.55-2.94L230.74,129.36z"/>
		<path class="st0" d="M253.39,109.86h5.76l-2.5,20.46h-5.76l0.33-2.65c-1.04,1.37-2.22,2.08-2.6,2.31
			c-1.23,0.71-2.41,0.99-3.83,0.99c-2.46,0-4.77-0.66-6.71-2.6c-1.98-1.98-2.74-4.49-2.74-7.23c0-3.68,1.23-6.71,3.17-8.74
			c1.65-1.7,4.3-3.21,8.08-3.21c1.46,0,2.74,0.28,4.06,0.99c1.13,0.61,1.84,1.37,2.41,2.32L253.39,109.86z M243.38,115.77
			c-1.32,1.23-2.03,3.02-2.03,4.72c0,1.79,0.66,3.21,1.56,4.06c0.85,0.8,2.08,1.32,3.78,1.32c1.13,0,2.69-0.24,4.06-1.46
			c1.37-1.23,2.03-3.17,2.03-4.91c0-1.46-0.57-2.74-1.42-3.64c-0.66-0.71-1.89-1.56-3.97-1.56
			C245.93,114.3,244.56,114.73,243.38,115.77z"/>
		<path class="st0" d="M264.64,109.86h5.76l-0.38,2.93c0.57-0.99,1.46-2.03,2.55-2.69c1.23-0.76,2.36-0.9,3.59-0.9
			c1.04,0,1.79,0.14,2.69,0.47l-1.7,5.15c-0.66-0.33-1.37-0.52-2.22-0.52c-1.51,0-2.74,0.57-3.59,1.42
			c-1.28,1.28-2.12,3.83-2.36,5.91l-1.09,8.69h-5.76L264.64,109.86z"/>
		<path class="st0" d="M299.93,124.84c-1.04,2.12-2.69,3.83-4.35,4.77c-2.03,1.13-4.3,1.37-6.14,1.37c-2.74,0-5.43-0.52-7.61-2.83
			c-1.13-1.18-2.46-3.26-2.46-6.61c0-3.54,1.28-7.09,3.54-9.31c2.6-2.6,5.67-3.02,8.17-3.02c2.46,0,5.01,0.47,6.99,2.36
			c2.22,2.13,2.65,4.91,2.65,7.42c0,0.85,0,1.46-0.1,2.08h-15.3c-0.24,1.89,0.33,3.26,1.18,4.11c1.04,1.09,2.32,1.28,3.36,1.28
			c0.71,0,2.03-0.05,3.12-0.66c0.85-0.52,1.56-1.37,1.98-2.13L299.93,124.84z M295.68,117.37c-0.05-1.18-0.57-2.31-1.28-2.98
			c-0.8-0.76-2.03-1.13-3.21-1.13c-1.56,0-2.69,0.61-3.5,1.32c-0.71,0.66-1.37,1.65-1.7,2.79H295.68z"/>
	</g>
	<path class="st0" d="M106.11,66.15c-4.97,1.6-7.75,3.83-9.3,5.94c-1.8,2.46-2.04,5.73-0.78,8.5l3.74,8.23
		c0.86,1.72,1.72,2.45,3.56,2.45H114c1.84,0,2.82-1.59,2.08-3.19L106.11,66.15z"/>
	<path class="st0" d="M78.32,5.54c-0.37-0.74-0.86-1.35-2.08-1.35h-1.23c-1.1,0-1.72,0.61-2.08,1.35L52.14,50.52
		c-0.49-0.21-0.77-0.33-0.77-0.33s-10.12-4.25-19.19-5.66C16.7,42.11,4.8,51.93,4.8,51.93c-0.36,0.3-0.67,0.75-0.69,1.11
		c-0.03,0.57,0.4,1.06,0.96,1.12c0.35,0.04,0.62,0.02,1-0.05c0,0,12.14-2.86,27.37,2.86s17.28,7.91,24.65,10.06
		c8.6,2.34,17.47,3.21,26.28,1.86c2.26-0.35,5.06-1.19,7.23-1.8c0,0,7.85-2.29,12.23-5.85L78.32,5.54z M75.13,34.97h0.37l9.51,20.92
		c-0.09,0.03-0.14,0.04-0.14,0.04c-0.44,0.08-0.89,0.15-1.34,0.22c-5.44,0.76-11.7,0.66-17.63-0.44L75.13,34.97z"/>
	<path class="st0" d="M177.3,5.42h-12.51c-1.1,0-1.84,0.74-2.08,1.35L139.16,59.5h-0.86L114.76,6.77c-0.25-0.61-0.98-1.35-2.08-1.35
		h-12.51c-1.84,0-2.82,1.59-2.08,3.19l37.9,82.54c0.37,0.74,0.98,1.35,2.08,1.35h1.23c1.1,0,1.72-0.61,2.08-1.35L179.39,8.6
		C180.12,7.01,179.14,5.42,177.3,5.42z"/>
	<path class="st0" d="M238.79,5.42h-49.91c-1.35,0-2.33,1.1-2.33,2.33v81.19c0,1.23,0.98,2.33,2.33,2.33h49.91
		c1.35,0,2.33-1.1,2.33-2.33V78.88c0-1.23-0.98-2.33-2.33-2.33h-36.3V55.09h30.29c1.23,0,2.33-0.98,2.33-2.33V42.58
		c0-1.23-1.1-2.33-2.33-2.33h-30.29V20.13h36.3c1.35,0,2.33-1.1,2.33-2.33V7.75C241.12,6.52,240.14,5.42,238.79,5.42z"/>
	<path class="st0" d="M298.87,76.55H267.6V7.75c0-1.23-1.1-2.33-2.33-2.33h-11.28c-1.35,0-2.33,1.1-2.33,2.33v81.19
		c0,1.23,0.98,2.33,2.33,2.33h44.89c1.35,0,2.33-1.1,2.33-2.33V78.88C301.2,77.65,300.22,76.55,298.87,76.55z"/>
</g>
</svg>
